HIERARCHY
ROOT ZeroOut_JNT
{
  OFFSET 0 0 0
  CHANNELS 6 Xposition Yposition Zposition Zrotation Xrotation Yrotation
  JOINT SpineFinal_1_JNT
  {
    OFFSET 0 59.8141 -42.9993
    CHANNELS 6 Xposition Yposition Zposition Zrotation Xrotation Yrotation
    JOINT l_legIKClavicle_Root_JNT
    {
      OFFSET -0.323145 -1.55994 9.59625
      CHANNELS 6 Xposition Yposition Zposition Zrotation Xrotation Yrotation
      JOINT l_legBlendRoot_JNT
      {
        OFFSET 16.1374 0 0
        CHANNELS 6 Xposition Yposition Zposition Zrotation Xrotation Yrotation
        JOINT l_legBlendMiddle_JNT
        {
          OFFSET 27.0969 0 0
          CHANNELS 6 Xposition Yposition Zposition Zrotation Xrotation Yrotation
          JOINT l_legBlendEnd_JNT
          {
            OFFSET 24.8414 0 0
            CHANNELS 6 Xposition Yposition Zposition Zrotation Xrotation Yrotation
            JOINT l_legBlendTip_JNT
            {
              OFFSET 6.77858 0 0
              CHANNELS 6 Xposition Yposition Zposition Zrotation Xrotation Yrotation
              End Site
              {
                OFFSET 0 0 0
              }
            }
          }
        }
      }
    }
    JOINT SpineFinal_2_JNT
    {
      OFFSET -19.5366 0.0587492 -0.00256357
      CHANNELS 6 Xposition Yposition Zposition Zrotation Xrotation Yrotation
      JOINT SpineFinal_3_JNT
      {
        OFFSET -19.4679 1.47333 -0.00136182
        CHANNELS 6 Xposition Yposition Zposition Zrotation Xrotation Yrotation
        JOINT SpineFinal_4_JNT
        {
          OFFSET -18.2335 5.20609 0
          CHANNELS 6 Xposition Yposition Zposition Zrotation Xrotation Yrotation
          JOINT SpineFinal_5_JNT
          {
            OFFSET -17.3574 8.01768 -1.82773e-005
            CHANNELS 6 Xposition Yposition Zposition Zrotation Xrotation Yrotation
            JOINT SpineFinal_6_JNT
            {
              OFFSET -19.144 8.35871 0
              CHANNELS 6 Xposition Yposition Zposition Zrotation Xrotation Yrotation
              JOINT SpineFinal_7_JNT
              {
                OFFSET -16.3943 7.24542 0
                CHANNELS 6 Xposition Yposition Zposition Zrotation Xrotation Yrotation
                JOINT SpineFinal_8_JNT
                {
                  OFFSET -19.3877 2.40349 0
                  CHANNELS 6 Xposition Yposition Zposition Zrotation Xrotation Yrotation
                  JOINT head_JNT
                  {
                    OFFSET -13.796 -11.6756 0
                    CHANNELS 6 Xposition Yposition Zposition Zrotation Xrotation Yrotation
                    JOINT l_hornRoot_JNT
                    {
                      OFFSET -15.825 14.8229 15.3879
                      CHANNELS 6 Xposition Yposition Zposition Zrotation Xrotation Yrotation
                      JOINT l_hornMid_JNT
                      {
                        OFFSET 6.55118 0 0
                        CHANNELS 6 Xposition Yposition Zposition Zrotation Xrotation Yrotation
                        JOINT l_hornEnd_JNT
                        {
                          OFFSET 6.73503 0 0
                          CHANNELS 6 Xposition Yposition Zposition Zrotation Xrotation Yrotation
                          End Site
                          {
                            OFFSET 0 0 0
                          }
                        }
                      }
                    }
                    JOINT headJend_JNT
                    {
                      OFFSET 1.34858 -27.5886 0
                      CHANNELS 6 Xposition Yposition Zposition Zrotation Xrotation Yrotation
                      End Site
                      {
                        OFFSET 0 0 0
                      }
                    }
                    JOINT r_hornRoot_JNT
                    {
                      OFFSET -15.825 14.8229 -15.3879
                      CHANNELS 6 Xposition Yposition Zposition Zrotation Xrotation Yrotation
                      JOINT r_hornMid_JNT
                      {
                        OFFSET -2.40814 5.46468 -2.69372
                        CHANNELS 6 Xposition Yposition Zposition Zrotation Xrotation Yrotation
                        JOINT r_hornEnd_JNT
                        {
                          OFFSET -2.40922 6.0083 -1.85921
                          CHANNELS 6 Xposition Yposition Zposition Zrotation Xrotation Yrotation
                          End Site
                          {
                            OFFSET 0 0 0
                          }
                        }
                      }
                    }
                    JOINT m_upLip_JNT
                    {
                      OFFSET 4.72477 -9.87974 0
                      CHANNELS 6 Xposition Yposition Zposition Zrotation Xrotation Yrotation
                      JOINT l_lipUpRoot_JNT
                      {
                        OFFSET 2.68891 -0.690234 4.02874
                        CHANNELS 6 Xposition Yposition Zposition Zrotation Xrotation Yrotation
                        JOINT l_lipUpEnd_JNT
                        {
                          OFFSET 0 0 -14.9226
                          CHANNELS 6 Xposition Yposition Zposition Zrotation Xrotation Yrotation
                          End Site
                          {
                            OFFSET 0 0 0
                          }
                        }
                      }
                      JOINT m_upLipRoot_JNT
                      {
                        OFFSET 0 0 3.94939
                        CHANNELS 6 Xposition Yposition Zposition Zrotation Xrotation Yrotation
                        JOINT m_upLipEnd_JNT
                        {
                          OFFSET 0 0 15.0019
                          CHANNELS 6 Xposition Yposition Zposition Zrotation Xrotation Yrotation
                          End Site
                          {
                            OFFSET 0 0 0
                          }
                        }
                      }
                      JOINT r_lipUpRoot_JNT
                      {
                        OFFSET -2.689 -0.690236 4.02875
                        CHANNELS 6 Xposition Yposition Zposition Zrotation Xrotation Yrotation
                        JOINT r_lipUpEnd_JNT
                        {
                          OFFSET 9.35075e-005 -0.000392738 14.9226
                          CHANNELS 6 Xposition Yposition Zposition Zrotation Xrotation Yrotation
                          End Site
                          {
                            OFFSET 0 0 0
                          }
                        }
                      }
                    }
                    JOINT m_DnLip_JNT
                    {
                      OFFSET 6.0207 -9.81639 0
                      CHANNELS 6 Xposition Yposition Zposition Zrotation Xrotation Yrotation
                      JOINT l_lipDn_JNT
                      {
                        OFFSET 2.71301 -0.162748 3.99146
                        CHANNELS 6 Xposition Yposition Zposition Zrotation Xrotation Yrotation
                        JOINT l_lipEnd_JNT
                        {
                          OFFSET 0 0 -14.9599
                          CHANNELS 6 Xposition Yposition Zposition Zrotation Xrotation Yrotation
                          End Site
                          {
                            OFFSET 0 0 0
                          }
                        }
                      }
                      JOINT m_dnLip_JNT
                      {
                        OFFSET 0 -0.0431035 3.99141
                        CHANNELS 6 Xposition Yposition Zposition Zrotation Xrotation Yrotation
                        JOINT m_dnLipEnd_JNT
                        {
                          OFFSET 0 0 14.9599
                          CHANNELS 6 Xposition Yposition Zposition Zrotation Xrotation Yrotation
                          End Site
                          {
                            OFFSET 0 0 0
                          }
                        }
                      }
                      JOINT r_lipDn_JNT
                      {
                        OFFSET -2.71301 -0.162761 3.99141
                        CHANNELS 6 Xposition Yposition Zposition Zrotation Xrotation Yrotation
                        JOINT r_lipDnEnd_JNT
                        {
                          OFFSET 0 0 14.9599
                          CHANNELS 6 Xposition Yposition Zposition Zrotation Xrotation Yrotation
                          End Site
                          {
                            OFFSET 0 0 0
                          }
                        }
                      }
                    }
                    JOINT l_lid_JNT
                    {
                      OFFSET -7.85698 -6.72885 9.63956
                      CHANNELS 6 Xposition Yposition Zposition Zrotation Xrotation Yrotation
                      End Site
                      {
                        OFFSET 0 0 0
                      }
                    }
                    JOINT r_lid_JNT
                    {
                      OFFSET -7.85684 -6.72882 -9.63956
                      CHANNELS 6 Xposition Yposition Zposition Zrotation Xrotation Yrotation
                      End Site
                      {
                        OFFSET 0 0 0
                      }
                    }
                  }
                }
              }
            }
            JOINT l_FwClavicleRoot_JNT
            {
              OFFSET -0.15532 -4.55898 6.72563
              CHANNELS 6 Xposition Yposition Zposition Zrotation Xrotation Yrotation
              JOINT l_FwLegBlendRoot_JNT
              {
                OFFSET 21.051 0 0
                CHANNELS 6 Xposition Yposition Zposition Zrotation Xrotation Yrotation
                JOINT l_FwLegBlendMiddle_JNT
                {
                  OFFSET 33.1145 0 0
                  CHANNELS 6 Xposition Yposition Zposition Zrotation Xrotation Yrotation
                  JOINT l_FwLegBlendTip_JNT
                  {
                    OFFSET 29.9221 0 0
                    CHANNELS 6 Xposition Yposition Zposition Zrotation Xrotation Yrotation
                    JOINT l_FwLegBlendEnd_JNT
                    {
                      OFFSET 9.62649 0 0
                      CHANNELS 6 Xposition Yposition Zposition Zrotation Xrotation Yrotation
                      End Site
                      {
                        OFFSET 0 0 0
                      }
                    }
                  }
                }
              }
            }
            JOINT r_FwClavicleRoot_JNT
            {
              OFFSET -0.15532 -4.55898 -6.72563
              CHANNELS 6 Xposition Yposition Zposition Zrotation Xrotation Yrotation
              JOINT r_FwLegBlendRoot_JNT
              {
                OFFSET 1.1653 -12.7157 -16.7361
                CHANNELS 6 Xposition Yposition Zposition Zrotation Xrotation Yrotation
                JOINT r_FwLegBlendMiddle_JNT
                {
                  OFFSET 16.2308 -5.97551 28.2387
                  CHANNELS 6 Xposition Yposition Zposition Zrotation Xrotation Yrotation
                  JOINT r_FwLegBlendTip_JNT
                  {
                    OFFSET 26.7017 -9.19239 -9.89204
                    CHANNELS 6 Xposition Yposition Zposition Zrotation Xrotation Yrotation
                    JOINT r_FwLegBlendEnd_JNT
                    {
                      OFFSET 4.44874 -7.74942 3.58114
                      CHANNELS 6 Xposition Yposition Zposition Zrotation Xrotation Yrotation
                      End Site
                      {
                        OFFSET 0 0 0
                      }
                    }
                  }
                }
              }
            }
          }
        }
      }
    }
    JOINT r_legIKClavicle_Root_JNT
    {
      OFFSET -0.323145 -1.55994 -9.59625
      CHANNELS 6 Xposition Yposition Zposition Zrotation Xrotation Yrotation
      JOINT r_legBlendRoot_JNT
      {
        OFFSET 13.2848 -5.74129 -7.13912
        CHANNELS 6 Xposition Yposition Zposition Zrotation Xrotation Yrotation
        JOINT r_legBlendMiddle_JNT
        {
          OFFSET 14.815 16.9375 15.0957
          CHANNELS 6 Xposition Yposition Zposition Zrotation Xrotation Yrotation
          JOINT r_legBlendEnd_JNT
          {
            OFFSET 23.6904 -6.58016 -3.54465
            CHANNELS 6 Xposition Yposition Zposition Zrotation Xrotation Yrotation
            JOINT r_legBlendTip_JNT
            {
              OFFSET 1.47758 -6.16068 -2.41079
              CHANNELS 6 Xposition Yposition Zposition Zrotation Xrotation Yrotation
              End Site
              {
                OFFSET 0 0 0
              }
            }
          }
        }
      }
    }
    JOINT tailRoot_JNT
    {
      OFFSET 2.82533 14.5514 0
      CHANNELS 6 Xposition Yposition Zposition Zrotation Xrotation Yrotation
      JOINT tailMid_JNT
      {
        OFFSET 7.87756 0 0
        CHANNELS 6 Xposition Yposition Zposition Zrotation Xrotation Yrotation
        JOINT tailEnd_JNT
        {
          OFFSET 6.52588 0 0
          CHANNELS 6 Xposition Yposition Zposition Zrotation Xrotation Yrotation
          End Site
          {
            OFFSET 0 0 0
          }
        }
      }
    }
    JOINT l_shoulderBkRoot_JNT
    {
      OFFSET -9.30511 7.998 11.2048
      CHANNELS 6 Xposition Yposition Zposition Zrotation Xrotation Yrotation
      JOINT l_shoulderBkMid_JNT
      {
        OFFSET 0 0 0
        CHANNELS 6 Xposition Yposition Zposition Zrotation Xrotation Yrotation
        End Site
        {
          OFFSET 0 0 0
        }
      }
    }
    JOINT r_shoulderBkRoot_JNT
    {
      OFFSET -9.30514 7.99801 -11.2048
      CHANNELS 6 Xposition Yposition Zposition Zrotation Xrotation Yrotation
      JOINT r_shoulderBkMid_JNT
      {
        OFFSET 0 0 0
        CHANNELS 6 Xposition Yposition Zposition Zrotation Xrotation Yrotation
        End Site
        {
          OFFSET 0 0 0
        }
      }
    }
  }
}
MOTION
Frames:	3
Frame Time:	0.0416667
0 0 0 0 0 -0 -2.07486 27.248 -42.97 55.4138 6.23509 90.3879 -0.323145 -1.55994 9.59625 -26.4062 61.2999 -67.9538 16.1374 3.5492e-009 1.79325e-006 -18.6911 -18.8521 82.0816 27.0969 7.10543e-015 -4.70735e-014 -2.56486e-014 -1.68038e-015 -103.856 24.8414 -2.13163e-014 2.13163e-014 -1.92549 30.7192 -39.5911 6.77858 -1.06581e-014 -1.42109e-014 1.45223e-015 8.82501e-016 -3.18055e-015 -19.4559 0.155841 0.065055 4.25854 41.9561 -5.56695 -17.9344 1.74529 -0.339501 -15.8177 13.338 0.18513 -15.4734 5.71617 -0.000726101 -2.93494 0.0395349 -0.00737169 -18.6361 -0.46771 0.0050646 35.0202 0.0280778 0.0103052 -19.2185 7.148 0.243745 -3.5197 -11.3619 30.1463 -16.3943 7.24542 3.37508e-014 -14.5225 -16.2538 -1.65648e-014 -19.3877 2.40349 -3.19744e-014 9.63929 -18.2858 -1.41413 -13.796 -11.6756 6.03961e-014 1.33252e-015 5.56597e-015 -13.4635 -15.825 14.8229 15.3879 112.717 -2.35881 -24.301 6.55118 1.42109e-013 2.84217e-014 -0.362184 -6.73405 17.0623 6.73503 3.55271e-014 -4.9738e-014 9.54166e-015 -3.36692e-015 6.95746e-016 1.34858 -27.5886 -2.13163e-014 92.7985 1.19768e-014 -1.82261e-014 -15.825 14.8229 -15.3879 -0.274809 4.48703 1.892 -2.40814 5.46468 -2.69372 -3.66877 11.611 9.542 -2.40922 6.0083 -1.85921 3.18055e-015 -7.95139e-016 3.18055e-015 4.72477 -9.87974 0 92.7985 3.50417e-015 -90 2.68891 -0.690234 4.02874 -180 7.01671e-015 180 -7.10543e-015 -1.42109e-014 -14.9226 2.5842e-015 0 -3.09359e-015 -1.42109e-014 0 3.94939 2.48481e-017 -3.18055e-015 2.77056e-015 -7.10543e-015 -1.42109e-014 15.0019 -3.10601e-015 -6.36111e-015 -2.31087e-015 -2.689 -0.690236 4.02875 2.48481e-017 -3.18055e-015 2.77056e-015 9.35075e-005 -0.000392738 14.9226 -3.10601e-015 -6.36111e-015 -2.31087e-015 6.0207 -9.81639 0 92.7985 3.50417e-015 -90 2.71301 -0.162748 3.99146 -180 7.01671e-015 180 -7.10543e-015 0 -14.9599 2.5842e-015 0 -3.09359e-015 0 -0.0431035 3.99141 2.48481e-017 -3.18055e-015 2.77056e-015 0 0 14.9599 -3.10601e-015 -6.36111e-015 -2.31087e-015 -2.71301 -0.162761 3.99141 2.48481e-017 -3.18055e-015 2.77056e-015 0 0 14.9599 -3.10601e-015 -6.36111e-015 -2.31087e-015 -7.85698 -6.72885 9.63956 34.106 19.9417 -161.342 -7.85684 -6.72882 -9.63956 -145.894 19.9417 -161.342 -6.74819 1.62314 4.55472 -27.613 27.0713 -130.029 21.051 9.96537e-007 7.57641e-007 51.9997 -63.682 82.7086 33.1145 8.3753e-007 -2.8019e-007 82.0639 7.01671e-015 180 29.9221 5.68434e-014 -1.42109e-014 31.6295 30.6804 -9.19659 9.62649 1.42109e-014 7.10543e-015 29.859 -1.7467e-015 90 -3.2767 -1.28713 -12.5182 -94.9263 19.2845 7.06341 1.16529 -12.7157 -16.7361 -166.811 -59.6965 -75.2974 16.2308 -5.97551 28.2387 145.517 12.671 139.226 26.7017 -9.19239 -9.89204 92.103 54.4762 -75.2201 4.44874 -7.74942 3.58114 29.859 -1.7467e-015 90 -0.288419 -1.27089 -7.49815 -65.9342 -17.7875 -8.94944 13.2848 -5.74129 -7.13912 11.2641 2.38182 31.4904 14.815 16.9375 15.0957 -46.064 36.2698 -38.1935 23.6904 -6.58016 -3.54465 17.567 2.38071 -45.7761 1.47758 -6.16068 -2.41079 -1.59028e-015 -1.59028e-015 -5.46658e-016 2.82533 14.5514 7.10543e-015 4.99157 -2.24875e-015 34.3462 7.87756 -2.4869e-014 2.13163e-014 19.1217 9.54166e-015 26.8019 6.52588 1.42109e-014 -3.55271e-014 -10.2623 -12.3663 49.7889 -9.30511 7.998 11.2048 -6.8505 -4.18474e-016 -90 0 0 0 -7.45365e-015 9.93923e-017 -4.96962e-017 -9.30514 7.99801 -11.2048 173.149 4.18474e-016 -90 0 0 0 -9.09983e-015 -9.93923e-017 4.96962e-017 
0 0 0 0 0 -0 -2.07486 27.248 -42.97 55.4138 6.23509 90.3879 -0.323145 -1.55994 9.59625 -26.4062 61.2999 -67.9538 16.1374 3.5492e-009 1.79325e-006 -18.6911 -18.8521 82.0816 27.0969 7.10543e-015 -4.70735e-014 -2.56486e-014 -1.68038e-015 -103.856 24.8414 -2.13163e-014 2.13163e-014 -1.92549 30.7192 -39.5911 6.77858 -1.06581e-014 -1.42109e-014 1.45223e-015 8.82501e-016 -3.18055e-015 -19.4559 0.155841 0.065055 4.25854 41.9561 -5.56695 -17.9344 1.74529 -0.339501 -15.8177 13.338 0.18513 -15.4734 5.71617 -0.000726101 -2.93494 0.0395349 -0.00737169 -18.6361 -0.46771 0.0050646 35.0202 0.0280778 0.0103052 -19.2185 7.148 0.243745 -3.5197 -11.3619 30.1463 -16.3943 7.24542 3.37508e-014 -14.5225 -16.2538 -1.65648e-014 -19.3877 2.40349 -3.19744e-014 9.63929 -18.2858 -1.41413 -13.796 -11.6756 6.03961e-014 1.33252e-015 5.56597e-015 -13.4635 -15.825 14.8229 15.3879 112.717 -2.35881 -24.301 6.55118 1.42109e-013 2.84217e-014 -0.362184 -6.73405 17.0623 6.73503 3.55271e-014 -4.9738e-014 9.54166e-015 -3.36692e-015 6.95746e-016 1.34858 -27.5886 -2.13163e-014 92.7985 1.19768e-014 -1.82261e-014 -15.825 14.8229 -15.3879 -0.274809 4.48703 1.892 -2.40814 5.46468 -2.69372 -3.66877 11.611 9.542 -2.40922 6.0083 -1.85921 3.18055e-015 -7.95139e-016 3.18055e-015 4.72477 -9.87974 0 92.7985 3.50417e-015 -90 2.68891 -0.690234 4.02874 -180 7.01671e-015 180 -7.10543e-015 -1.42109e-014 -14.9226 2.5842e-015 0 -3.09359e-015 -1.42109e-014 0 3.94939 2.48481e-017 -3.18055e-015 2.77056e-015 -7.10543e-015 -1.42109e-014 15.0019 -3.10601e-015 -6.36111e-015 -2.31087e-015 -2.689 -0.690236 4.02875 2.48481e-017 -3.18055e-015 2.77056e-015 9.35075e-005 -0.000392738 14.9226 -3.10601e-015 -6.36111e-015 -2.31087e-015 6.0207 -9.81639 0 92.7985 3.50417e-015 -90 2.71301 -0.162748 3.99146 -180 7.01671e-015 180 -7.10543e-015 0 -14.9599 2.5842e-015 0 -3.09359e-015 0 -0.0431035 3.99141 2.48481e-017 -3.18055e-015 2.77056e-015 0 0 14.9599 -3.10601e-015 -6.36111e-015 -2.31087e-015 -2.71301 -0.162761 3.99141 2.48481e-017 -3.18055e-015 2.77056e-015 0 0 14.9599 -3.10601e-015 -6.36111e-015 -2.31087e-015 -7.85698 -6.72885 9.63956 34.106 19.9417 -161.342 -7.85684 -6.72882 -9.63956 -145.894 19.9417 -161.342 -6.74819 1.62314 4.55472 -27.613 27.0713 -130.029 21.051 9.96537e-007 7.57641e-007 51.9997 -63.682 82.7086 33.1145 8.3753e-007 -2.8019e-007 82.0639 7.01671e-015 180 29.9221 5.68434e-014 -1.42109e-014 31.6295 30.6804 -9.19659 9.62649 1.42109e-014 7.10543e-015 29.859 -1.7467e-015 90 -3.2767 -1.28713 -12.5182 -94.9263 19.2845 7.06341 1.16529 -12.7157 -16.7361 -166.811 -59.6965 -75.2974 16.2308 -5.97551 28.2387 145.517 12.671 139.226 26.7017 -9.19239 -9.89204 92.103 54.4762 -75.2201 4.44874 -7.74942 3.58114 29.859 -1.7467e-015 90 -0.288419 -1.27089 -7.49815 -65.9342 -17.7875 -8.94944 13.2848 -5.74129 -7.13912 11.2641 2.38182 31.4904 14.815 16.9375 15.0957 -46.064 36.2698 -38.1935 23.6904 -6.58016 -3.54465 17.567 2.38071 -45.7761 1.47758 -6.16068 -2.41079 -1.59028e-015 -1.59028e-015 -5.46658e-016 2.82533 14.5514 7.10543e-015 4.99157 -2.24875e-015 34.3462 7.87756 -2.4869e-014 2.13163e-014 19.1217 9.54166e-015 26.8019 6.52588 1.42109e-014 -3.55271e-014 -10.2623 -12.3663 49.7889 -9.30511 7.998 11.2048 -6.8505 -4.18474e-016 -90 0 0 0 -7.45365e-015 9.93923e-017 -4.96962e-017 -9.30514 7.99801 -11.2048 173.149 4.18474e-016 -90 0 0 0 -9.09983e-015 -9.93923e-017 4.96962e-017 
0 0 0 0 0 -0 -1.24523 36.9139 -45.3054 35.9797 6.07783 89.8927 -0.323145 -1.55994 9.59625 -26.4062 61.2999 -67.9538 16.1374 -2.13907e-007 1.75498e-006 -22.9403 -14.8441 73.8121 27.0969 2.13163e-014 -4.61853e-014 -6.48161e-014 1.21629e-015 -99.9822 24.8414 -2.84217e-014 7.10543e-015 7.04084 30.11 -38.3087 6.77858 -7.10543e-015 -1.42109e-014 1.62959e-015 5.22955e-015 -1.27222e-014 -19.4513 0.0888669 -0.10466 2.82123 27.3666 -3.18296 -18.0644 2.07356 -0.12635 -15.9688 8.48784 0.354181 -15.7355 5.70293 -0.000627293 -4.89306 0.0333421 -0.0030866 -18.8434 0.505701 0.00493975 27.8194 0.0236308 0.0129383 -19.1978 7.34932 0.21145 -7.03144 -9.99755 25.9857 -16.3943 7.24542 3.19744e-014 -16.8526 -12.1903 -1.62696e-014 -19.3877 2.40349 -4.26326e-014 5.54976 -13.7161 -1.0366 -13.796 -11.6756 7.4607e-014 -4.82486e-016 6.36111e-015 -10.0976 -15.825 14.8229 15.3879 112.717 -2.35881 -24.301 6.55118 1.56319e-013 7.10543e-015 -0.228272 -6.93866 13.3165 6.73503 1.42109e-014 -4.9738e-014 -9.54166e-015 1.59028e-015 5.56597e-015 1.34858 -27.5886 -1.42109e-014 92.7985 1.27222e-014 -2.0276e-014 -15.825 14.8229 -15.3879 -0.192087 3.36616 1.41625 -2.40814 5.46468 -2.69372 -10.6505 7.19049 3.62906 -2.40922 6.0083 -1.85921 1.59028e-015 -4.17448e-015 -3.18055e-015 4.72477 -9.87974 -3.55271e-014 92.7985 3.50417e-015 -90 2.68891 -0.690234 4.02874 180 7.01671e-015 180 7.10543e-015 0 -14.9226 -8.82781e-032 1.59028e-015 3.18055e-015 -1.42109e-014 1.42109e-014 3.94939 -1.59028e-015 -1.59028e-015 7.95139e-016 -7.10543e-015 -1.42109e-014 15.0019 1.59028e-015 0 4.37326e-015 -2.689 -0.690236 4.02875 -1.59028e-015 -1.59028e-015 7.95139e-016 9.35075e-005 -0.000392738 14.9226 1.59028e-015 0 4.37326e-015 6.0207 -9.81639 -2.84217e-014 92.7985 3.50417e-015 -90 2.71301 -0.162748 3.99146 180 7.01671e-015 180 0 -1.42109e-014 -14.9599 -8.82781e-032 1.59028e-015 3.18055e-015 0 -0.0431035 3.99141 -1.59028e-015 -1.59028e-015 7.95139e-016 0 0 14.9599 1.59028e-015 0 4.37326e-015 -2.71301 -0.162761 3.99141 -1.59028e-015 -1.59028e-015 7.95139e-016 0 0 14.9599 1.59028e-015 0 4.37326e-015 -7.85698 -6.72885 9.63956 34.106 19.9417 85.9622 -7.85684 -6.72882 -9.63956 -145.894 19.9417 85.9622 -6.25151 -0.434844 5.3176 -15.4455 25.9321 -125.63 21.051 2.80349e-007 7.25994e-008 48.7531 -52.5159 105.201 33.1145 8.3753e-007 -2.8019e-007 71.5064 7.01671e-015 180 29.9221 2.30926e-014 -1.42109e-014 1.59054 23.1829 15.9216 9.62649 2.13163e-014 7.10543e-015 29.859 -1.7467e-015 90 -3.18973 -2.33394 -11.1372 -84.1433 17.0754 0.572808 1.1653 -12.7157 -16.7361 149.209 -52.4311 -168.114 16.2308 -5.97551 28.2387 153.589 17.9919 109.376 26.7017 -9.19239 -9.89204 0.0455619 35.0618 32.9296 4.44874 -7.74942 3.58114 29.859 -1.7467e-015 90 -0.303557 -1.3969 -8.01389 -64.9189 -15.7275 -5.42948 13.2848 -5.74129 -7.13912 8.75296 -6.75818 31.582 14.815 16.9375 15.0957 -52.4891 38.9476 -34.2688 23.6904 -6.58016 -3.54465 22.8815 7.55825 -63.558 1.47758 -6.16068 -2.41079 3.97569e-016 0 -1.26228e-014 2.82533 14.5514 7.10543e-015 4.99157 -8.59744e-015 25.7596 7.87756 -2.13163e-014 1.42109e-014 19.1217 3.18055e-015 20.1014 6.52588 1.42109e-014 -2.13163e-014 -9.94339 -11.3148 37.0159 -9.30511 7.998 11.2048 -6.8505 -4.18474e-016 -90 0 0 0 3.01788e-015 0 1.36664e-016 -9.30514 7.99801 -11.2048 173.149 4.18474e-016 -90 0 0 0 -8.87154e-015 -1.98785e-016 -4.96962e-017 
